<svg width="24" height="24" viewBox="0 0 24 24" xmlns="http://www.w3.org/2000/svg">
<path d="M14.2892 1.49023L13.3009 2.47852L14.715 3.89453L15.7032 2.9043L14.2892 1.49023ZM19.2931 2.04492L18.2931 3.04492L19.7071 4.45898L20.7071 3.45898L19.2931 2.04492ZM12.2794 3.50195L4.87706 10.9043C2.34306 13.4383 2.34306 17.5617 4.87706 20.0957C6.10406 21.3247 7.73772 22 9.47472 22C11.2117 22 12.8424 21.3227 14.0704 20.0957L19.7091 14.459L18.295 13.0449L12.6544 18.6816C11.8054 19.5316 10.6767 20 9.47472 20C8.27272 20 7.14212 19.5316 6.29112 18.6816C5.44112 17.8316 4.97472 16.703 4.97472 15.5C4.97472 14.297 5.44212 13.1684 6.29112 12.3184L13.6935 4.91406L12.2794 3.50195ZM17.3009 4.03711L12.2931 9.04492L13.7071 10.459L18.715 5.45117L17.3009 4.03711ZM20.2931 6.04492L19.2931 7.04492L20.7071 8.45898L21.7071 7.45898L20.2931 6.04492ZM18.2931 8.04492L13.2931 13.0449L14.7071 14.459L19.7071 9.45898L18.2931 8.04492ZM20.2931 11.0449L19.2931 12.0449L20.7071 13.459L21.7071 12.459L20.2931 11.0449ZM9.49816 13C8.83511 13 8.19923 13.2634 7.73039 13.7322C7.26155 14.2011 6.99816 14.837 6.99816 15.5C6.99816 16.163 7.26155 16.7989 7.73039 17.2678C8.19923 17.7366 8.83511 18 9.49816 18C9.82646 18 10.1516 17.9353 10.4549 17.8097C10.7582 17.6841 11.0338 17.4999 11.2659 17.2678C11.4981 17.0356 11.6822 16.76 11.8079 16.4567C11.9335 16.1534 11.9982 15.8283 11.9982 15.5C11.9982 15.1717 11.9335 14.8466 11.8079 14.5433C11.6822 14.24 11.4981 13.9644 11.2659 13.7322C11.0338 13.5001 10.7582 13.3159 10.4549 13.1903C10.1516 13.0647 9.82646 13 9.49816 13Z" fill="white"/>
</svg>
